%
T1C.035F197S55
X0135Y013
X0155Y013
X0175Y013
X0195Y013
X0195Y012
X0225Y012
X0225Y013
X0225Y014
X0225Y015
X0195Y015
X0195Y014
X0175Y015
X0155Y015
X0135Y015
X0135Y022
X0145Y022
X0155Y022
X0165Y022
X0175Y022
X0185Y022
X0195Y022
X0205Y022
X0205Y028
X0195Y028
X0185Y028
X0175Y028
X0165Y028
X0155Y028
X0145Y028
X0135Y028
X0185Y03
X0195Y03
X0185Y038
X0175Y038
X0165Y038
X0155Y038
X0145Y038
X0135Y038
X0125Y038
X0115Y038
X0205Y039
X0215Y039
X0225Y039
X0235Y039
X0245Y039
X0255Y039
T2C.037F197S55
X0135Y012
X0145Y011
X0145Y015
X0165Y011
X0165Y015
X0235Y013
X0245Y013
X0255Y015
X0245Y017
X0235Y017
X0215Y017
X0175Y017
X0145Y02
X0135Y02
X0135Y017
X0155Y04
X0165Y04
X0255Y04
M30
